<?xml version="1.0" standalone="no"?>
<!DOCTYPE svg PUBLIC "-//W3C//DTD SVG 20010904//EN"
 "http://www.w3.org/TR/2001/REC-SVG-20010904/DTD/svg10.dtd">
<svg version="1.0" xmlns="http://www.w3.org/2000/svg"
 width="700.000000pt" height="700.000000pt" viewBox="0 0 700.000000 700.000000"
 preserveAspectRatio="xMidYMid meet">
<metadata>
Created by potrace 1.11, written by Peter Selinger 2001-2013
</metadata>
<g transform="translate(0.000000,700.000000) scale(0.100000,-0.100000)"
fill="#000000" stroke="none">
<path d="M1435 6635 c-264 -41 -508 -166 -700 -359 -207 -209 -326 -442 -372
-731 -10 -65 -10 -4025 0 -4090 69 -433 338 -796 723 -979 65 -31 216 -84 257
-91 18 -3 39 -8 48 -11 10 -2 32 -8 50 -11 19 -4 939 -8 2044 -9 2200 -3 2073
-6 2268 57 245 79 465 233 621 433 143 183 228 379 265 611 12 72 9 4062 -3
4115 -56 254 -120 401 -245 568 -68 89 -160 181 -246 247 -33 24 -66 50 -74
57 -7 6 -61 35 -119 65 -123 62 -244 104 -347 119 -22 3 -60 10 -85 15 -25 4
-936 8 -2025 8 -1536 -1 -1998 -4 -2060 -14z"/>
</g>
</svg>
